--40000LOG 12:04:04:931514200 Waiting for file /home/seluser/videos/vid_chrome_or_firefox_40000* to be created...
Won't start video recording due to VIDEO env var false
ffmpeg version 2.8.17-0ubuntu0.1 Copyright (c) 2000-2020 the FFmpeg developers
  built with gcc 5.4.0 (Ubuntu 5.4.0-6ubuntu1~16.04.12) 20160609
  configuration: --prefix=/usr --extra-version=0ubuntu0.1 --build-suffix=-ffmpeg --toolchain=hardened --libdir=/usr/lib/x86_64-linux-gnu --incdir=/usr/include/x86_64-linux-gnu --cc=cc --cxx=g++ --enable-gpl --enable-shared --disable-stripping --disable-decoder=libopenjpeg --disable-decoder=libschroedinger --enable-avresample --enable-avisynth --enable-gnutls --enable-ladspa --enable-libass --enable-libbluray --enable-libbs2b --enable-libcaca --enable-libcdio --enable-libflite --enable-libfontconfig --enable-libfreetype --enable-libfribidi --enable-libgme --enable-libgsm --enable-libmodplug --enable-libmp3lame --enable-libopenjpeg --enable-libopus --enable-libpulse --enable-librtmp --enable-libschroedinger --enable-libshine --enable-libsnappy --enable-libsoxr --enable-libspeex --enable-libssh --enable-libtheora --enable-libtwolame --enable-libvorbis --enable-libvpx --enable-libwavpack --enable-libwebp --enable-libx265 --enable-libxvid --enable-libzvbi --enable-openal --enable-opengl --enable-x11grab --enable-libdc1394 --enable-libiec61883 --enable-libzmq --enable-frei0r --enable-libx264 --enable-libopencv
  libavutil      54. 31.100 / 54. 31.100
  libavcodec     56. 60.100 / 56. 60.100
  libavformat    56. 40.101 / 56. 40.101
  libavdevice    56.  4.100 / 56.  4.100
  libavfilter     5. 40.101 /  5. 40.101
  libavresample   2.  1.  0 /  2.  1.  0
  libswscale      3.  1.101 /  3.  1.101
  libswresample   1.  2.101 /  1.  2.101
  libpostproc    53.  3.100 / 53.  3.100
Input #0, x11grab, from ':64.0':
  Duration: N/A, start: 1604397845.200618, bitrate: N/A
    Stream #0:0: Video: rawvideo (BGR[0] / 0x524742), bgr0, 1366x768, 10 fps, 10 tbr, 1000k tbn, 10 tbc
[libx264 @ 0x2052320] using cpu capabilities: MMX2 SSE2Fast SSSE3 SSE4.2 AVX FMA3 AVX2 LZCNT BMI2
[libx264 @ 0x2052320] profile Constrained Baseline, level 3.2
[libx264 @ 0x2052320] 264 - core 148 r2643 5c65704 - H.264/MPEG-4 AVC codec - Copyleft 2003-2015 - http://www.videolan.org/x264.html - options: cabac=0 ref=1 deblock=0:0:0 analyse=0:0 me=dia subme=0 psy=1 psy_rd=1.00:0.00 mixed_ref=0 me_range=16 chroma_me=1 trellis=0 8x8dct=0 cqm=0 deadzone=21,11 fast_pskip=1 chroma_qp_offset=0 threads=3 lookahead_threads=1 sliced_threads=0 nr=0 decimate=1 interlaced=0 bluray_compat=0 constrained_intra=0 bframes=0 weightp=0 keyint=250 keyint_min=10 scenecut=0 intra_refresh=0 rc=crf mbtree=0 crf=23.0 qcomp=0.60 qpmin=0 qpmax=69 qpstep=4 ip_ratio=1.40 aq=0
Output #0, matroska, to '/home/seluser/videos/vid_chrome_or_firefox_40000.mkv':
  Metadata:
    encoder         : Lavf56.40.101
    Stream #0:0: Video: h264 (libx264) (H264 / 0x34363248), yuv420p, 1366x768, q=-1--1, 10 fps, 1k tbn, 10 tbc
    Metadata:
      encoder         : Lavc56.60.100 libx264
Stream mapping:
  Stream #0:0 -> #0:0 (rawvideo (native) -> h264 (libx264))
Press [q] to stop, [?] for help
[swscaler @ 0x205dca0] Warning: data is not aligned! This can lead to a speedloss
frame=    7 fps=0.0 q=10.0 size=      24kB time=00:00:00.30 bitrate= 653.4kbits/s    
frame=   13 fps= 12 q=9.0 size=      28kB time=00:00:00.90 bitrate= 253.7kbits/s    
frame=   19 fps= 11 q=9.0 size=      29kB time=00:00:01.50 bitrate= 156.5kbits/s    
frame=   24 fps= 11 q=9.0 size=      29kB time=00:00:02.00 bitrate= 120.0kbits/s    
frame=   29 fps= 11 q=12.0 size=      30kB time=00:00:02.50 bitrate=  97.8kbits/s    
frame=   35 fps= 10 q=10.0 size=      53kB time=00:00:03.10 bitrate= 141.2kbits/s    
frame=   41 fps= 11 q=9.0 size=      56kB time=00:00:03.70 bitrate= 124.4kbits/s    
frame=   46 fps= 10 q=9.0 size=      57kB time=00:00:04.20 bitrate= 112.1kbits/s    
frame=   51 fps= 10 q=16.0 size=      59kB time=00:00:04.70 bitrate= 102.4kbits/s    
frame=   56 fps= 10 q=12.0 size=      91kB time=00:00:05.20 bitrate= 143.2kbits/s    
frame=   62 fps= 10 q=9.0 size=      99kB time=00:00:05.80 bitrate= 140.4kbits/s    
frame=   67 fps= 10 q=9.0 size=     102kB time=00:00:06.30 bitrate= 132.4kbits/s    
frame=   73 fps= 10 q=9.0 size=     103kB time=00:00:06.90 bitrate= 122.5kbits/s    
frame=   78 fps= 10 q=9.0 size=     104kB time=00:00:07.40 bitrate= 115.6kbits/s    
frame=   84 fps= 10 q=9.0 size=     107kB time=00:00:08.00 bitrate= 109.4kbits/s    
frame=   89 fps= 10 q=12.0 size=     108kB time=00:00:08.50 bitrate= 104.3kbits/s    
frame=   95 fps= 10 q=9.0 size=     131kB time=00:00:09.10 bitrate= 117.6kbits/s    
frame=  100 fps= 10 q=9.0 size=     132kB time=00:00:09.60 bitrate= 112.5kbits/s    
frame=  106 fps= 10 q=9.0 size=     135kB time=00:00:10.20 bitrate= 108.1kbits/s    
frame=  112 fps= 10 q=9.0 size=     136kB time=00:00:10.80 bitrate= 103.0kbits/s    
frame=  118 fps= 10 q=9.0 size=     137kB time=00:00:11.40 bitrate=  98.6kbits/s    
frame=  123 fps= 10 q=12.0 size=     174kB time=00:00:11.90 bitrate= 119.8kbits/s    
frame=  129 fps= 10 q=11.0 size=     243kB time=00:00:12.50 bitrate= 159.1kbits/s    
frame=  134 fps= 10 q=9.0 size=     260kB time=00:00:13.00 bitrate= 163.8kbits/s    
frame=  140 fps= 10 q=13.0 size=     265kB time=00:00:13.60 bitrate= 159.5kbits/s    
frame=  146 fps= 10 q=9.0 size=     280kB time=00:00:14.20 bitrate= 161.6kbits/s    
frame=  151 fps= 10 q=11.0 size=     290kB time=00:00:14.70 bitrate= 161.6kbits/s    
frame=  156 fps= 10 q=11.0 size=     304kB time=00:00:15.20 bitrate= 163.7kbits/s    
frame=  163 fps= 10 q=15.0 size=     347kB time=00:00:15.90 bitrate= 178.9kbits/s    
frame=  169 fps= 10 q=10.0 size=     384kB time=00:00:16.50 bitrate= 190.4kbits/s    
frame=  175 fps= 10 q=12.0 size=     390kB time=00:00:17.10 bitrate= 186.8kbits/s    
frame=  181 fps= 10 q=13.0 size=     453kB time=00:00:17.70 bitrate= 209.5kbits/s    
frame=  187 fps= 10 q=9.0 size=     482kB time=00:00:18.30 bitrate= 215.7kbits/s    
frame=  192 fps= 10 q=9.0 size=     486kB time=00:00:18.80 bitrate= 211.8kbits/s    
frame=  198 fps= 10 q=10.0 size=     490kB time=00:00:19.40 bitrate= 206.9kbits/s    
frame=  203 fps= 10 q=14.0 size=     585kB time=00:00:19.90 bitrate= 240.7kbits/s    
frame=  208 fps= 10 q=10.0 size=     682kB time=00:00:20.40 bitrate= 274.0kbits/s    
frame=  213 fps= 10 q=9.0 size=     694kB time=00:00:20.90 bitrate= 272.1kbits/s    
frame=  219 fps= 10 q=9.0 size=     695kB time=00:00:21.50 bitrate= 264.8kbits/s    
frame=  225 fps= 10 q=9.0 size=     696kB time=00:00:22.10 bitrate= 257.8kbits/s    
frame=  230 fps= 10 q=9.0 size=     696kB time=00:00:22.60 bitrate= 252.3kbits/s    
frame=  236 fps= 10 q=18.0 size=     700kB time=00:00:23.20 bitrate= 247.3kbits/s    
frame=  242 fps= 10 q=10.0 size=     742kB time=00:00:23.80 bitrate= 255.6kbits/s    
frame=  248 fps= 10 q=9.0 size=     747kB time=00:00:24.40 bitrate= 250.8kbits/s    
frame=  253 fps= 10 q=7.0 size=     747kB time=00:00:24.90 bitrate= 245.9kbits/s    
frame=  259 fps= 10 q=10.0 size=     866kB time=00:00:25.50 bitrate= 278.1kbits/s    
frame=  265 fps= 10 q=9.0 size=     867kB time=00:00:26.10 bitrate= 272.2kbits/s    
frame=  271 fps= 10 q=9.0 size=     868kB time=00:00:26.70 bitrate= 266.2kbits/s    
frame=  276 fps= 10 q=9.0 size=     868kB time=00:00:27.20 bitrate= 261.4kbits/s    
frame=  282 fps= 10 q=9.0 size=     868kB time=00:00:27.80 bitrate= 255.8kbits/s    
frame=  288 fps= 10 q=9.0 size=     868kB time=00:00:28.40 bitrate= 250.5kbits/s    
frame=  294 fps= 10 q=9.0 size=     869kB time=00:00:29.00 bitrate= 245.4kbits/s    
frame=  299 fps= 10 q=9.0 size=     869kB time=00:00:29.50 bitrate= 241.3kbits/s    
frame=  305 fps= 10 q=9.0 size=     869kB time=00:00:30.10 bitrate= 236.6kbits/s    
frame=  311 fps= 10 q=9.0 size=     869kB time=00:00:30.70 bitrate= 232.0kbits/s    
frame=  316 fps= 10 q=9.0 size=     870kB time=00:00:31.20 bitrate= 228.4kbits/s    
frame=  322 fps= 10 q=9.0 size=     870kB time=00:00:31.80 bitrate= 224.1kbits/s    
frame=  328 fps= 10 q=9.0 size=     870kB time=00:00:32.40 bitrate= 220.0kbits/s    
frame=  334 fps= 10 q=9.0 size=     871kB time=00:00:33.00 bitrate= 216.1kbits/s    
frame=  340 fps= 10 q=9.0 size=     871kB time=00:00:33.60 bitrate= 212.3kbits/s    
frame=  346 fps= 10 q=9.0 size=     871kB time=00:00:34.20 bitrate= 208.7kbits/s    
frame=  352 fps= 10 q=9.0 size=     871kB time=00:00:34.80 bitrate= 205.1kbits/s    
frame=  358 fps= 10 q=9.0 size=     872kB time=00:00:35.40 bitrate= 201.7kbits/s    
frame=  364 fps= 10 q=9.0 size=     872kB time=00:00:36.00 bitrate= 198.4kbits/s    
frame=  370 fps= 10 q=9.0 size=     872kB time=00:00:36.60 bitrate= 195.2kbits/s    
frame=  375 fps= 10 q=9.0 size=     873kB time=00:00:37.10 bitrate= 192.7kbits/s    
frame=  381 fps= 10 q=9.0 size=     873kB time=00:00:37.70 bitrate= 189.6kbits/s    
frame=  386 fps= 10 q=10.0 size=     873kB time=00:00:38.20 bitrate= 187.2kbits/s    
frame=  392 fps= 10 q=14.0 size=     879kB time=00:00:38.80 bitrate= 185.7kbits/s    
frame=  397 fps= 10 q=10.0 size=     905kB time=00:00:39.30 bitrate= 188.7kbits/s    
frame=  402 fps= 10 q=14.0 size=     929kB time=00:00:39.80 bitrate= 191.2kbits/s    
frame=  407 fps= 10 q=10.0 size=     944kB time=00:00:40.30 bitrate= 191.9kbits/s    
frame=  413 fps= 10 q=9.0 size=     949kB time=00:00:40.90 bitrate= 190.1kbits/s    
frame=  419 fps= 10 q=21.0 size=    1016kB time=00:00:41.50 bitrate= 200.6kbits/s    
frame=  424 fps= 10 q=12.0 size=    1132kB time=00:00:42.00 bitrate= 220.7kbits/s    
frame=  430 fps= 10 q=9.0 size=    1187kB time=00:00:42.60 bitrate= 228.3kbits/s    
frame=  436 fps= 10 q=9.0 size=    1188kB time=00:00:43.20 bitrate= 225.3kbits/s    
frame=  441 fps= 10 q=9.0 size=    1188kB time=00:00:43.70 bitrate= 222.7kbits/s    
frame=  447 fps= 10 q=9.0 size=    1189kB time=00:00:44.30 bitrate= 219.8kbits/s    
frame=  452 fps= 10 q=9.0 size=    1189kB time=00:00:44.80 bitrate= 217.5kbits/s    
frame=  457 fps= 10 q=9.0 size=    1190kB time=00:00:45.30 bitrate= 215.2kbits/s    
frame=  463 fps= 10 q=9.0 size=    1190kB time=00:00:45.90 bitrate= 212.4kbits/s    
frame=  468 fps= 10 q=9.0 size=    1191kB time=00:00:46.40 bitrate= 210.2kbits/s    
frame=  473 fps= 10 q=9.0 size=    1191kB time=00:00:46.90 bitrate= 208.1kbits/s    
frame=  479 fps= 10 q=9.0 size=    1192kB time=00:00:47.50 bitrate= 205.5kbits/s    
frame=  485 fps= 10 q=9.0 size=    1192kB time=00:00:48.10 bitrate= 203.1kbits/s    
frame=  490 fps= 10 q=9.0 size=    1193kB time=00:00:48.60 bitrate= 201.0kbits/s    
frame=  496 fps= 10 q=9.0 size=    1193kB time=00:00:49.20 bitrate= 198.7kbits/s    
frame=  502 fps= 10 q=15.0 size=    1194kB time=00:00:49.80 bitrate= 196.4kbits/s    
--40000LOG 12:04:55:797320200 Trapped SIGTERM or SIGINT so shutting down ffmpeg gracefully...
--40000LOG 12:04:55:817808900 Will kill VID_TOOL_PID=520 ...
frame=  507 fps= 10 q=-1.0 Lsize=    1253kB time=00:00:50.70 bitrate= 202.5kbits/s    
video:1249kB audio:0kB subtitle:0kB other streams:0kB global headers:0kB muxing overhead: 0.330765%
[libx264 @ 0x2052320] frame I:3     Avg QP:11.33  size: 56307
[libx264 @ 0x2052320] frame P:504   Avg QP:10.07  size:  2202
[libx264 @ 0x2052320] mb I  I16..4: 100.0%  0.0%  0.0%
[libx264 @ 0x2052320] mb P  I16..4:  1.7%  0.0%  0.0%  P16..4:  2.1%  0.0%  0.0%  0.0%  0.0%    skip:96.2%
[libx264 @ 0x2052320] coded y,uvDC,uvAC intra: 13.8% 9.2% 8.4% inter: 0.9% 0.9% 0.6%
[libx264 @ 0x2052320] i16 v,h,dc,p: 76% 22%  1%  1%
[libx264 @ 0x2052320] i8c dc,h,v,p: 83% 14%  3%  1%
[libx264 @ 0x2052320] kb/s:201.74
Exiting normally, received signal 2.
--40000LOG 12:04:56:829186200 Tried to kill -SIGTERM VID_TOOL_PID=520
--40000LOG 12:04:56:832233700 Waiting up to 6s for VID_TOOL_PID=520 to end with SIGTERM...
--40000LOG 12:04:56:839399700 wait_pid successfully managed to SIGTERM:VID_TOOL_PID=520 within less than 6s
--40000LOG 12:04:56:842978700 Will try to fix the videos...
--40000LOG 12:04:57:355013200 Fixing perms for /home/seluser/videos/vid_chrome_or_firefox_40000.mkv*
--40000LOG 12:04:57:371685900 Changing video encoding from mkv to mp4...
--40000LOG 12:05:00:241013600 Conversion from mkv to mp4 succeeded!
--40000LOG 12:05:00:245694200 Cleaning up /home/seluser/videos/vid_chrome_or_firefox_40000.mkv ...
--40000LOG 12:05:00:250780700 Optimizing /home/seluser/videos/vid_chrome_or_firefox_40000.mp4 for HTTP streaming...
--40000LOG 12:05:00:277659600 Succeeded to mp4box_retry.sh within 8s
--40000LOG 12:05:00:281687800 ffmpeg shutdown complete.
